<svg xmlns="http://www.w3.org/2000/svg" xmlns:xlink="http://www.w3.org/1999/xlink" width="170" zoomAndPan="magnify" viewBox="0 0 127.5 45.749998" height="61" preserveAspectRatio="xMidYMid meet" version="1.0"><defs><g/><clipPath id="id1"><path d="M 14 1 L 40 1 L 40 32 L 14 32 Z M 14 1 " clip-rule="nonzero"/></clipPath><clipPath id="id2"><path d="M 0.0976562 18.929688 L 36.746094 0.414062 L 50.023438 26.6875 L 13.375 45.207031 Z M 0.0976562 18.929688 " clip-rule="nonzero"/></clipPath><clipPath id="id3"><path d="M 0.0976562 18.929688 L 36.746094 0.414062 L 50.023438 26.6875 L 13.375 45.207031 Z M 0.0976562 18.929688 " clip-rule="nonzero"/></clipPath><clipPath id="id4"><path d="M 5 12 L 34 12 L 34 41 L 5 41 Z M 5 12 " clip-rule="nonzero"/></clipPath><clipPath id="id5"><path d="M 0.0976562 18.929688 L 36.746094 0.414062 L 50.023438 26.6875 L 13.375 45.207031 Z M 0.0976562 18.929688 " clip-rule="nonzero"/></clipPath><clipPath id="id6"><path d="M 0.0976562 18.929688 L 36.746094 0.414062 L 50.023438 26.6875 L 13.375 45.207031 Z M 0.0976562 18.929688 " clip-rule="nonzero"/></clipPath></defs><g clip-path="url(#id1)"><g clip-path="url(#id2)"><g clip-path="url(#id3)"><path fill="#fe7a7b" d="M 25.039062 25.539062 C 24.941406 24.757812 24.679688 24.007812 24.261719 23.339844 L 24.027344 22.960938 L 26.75 19.449219 L 33.203125 11.050781 L 35.789062 11.402344 L 39.734375 6.324219 L 36.027344 5.816406 L 34.324219 1.644531 L 30.214844 6.945312 L 31.222656 9.414062 L 29.921875 11.085938 L 24.746094 17.84375 L 22.347656 20.933594 L 18.550781 25.824219 L 19.417969 20.773438 C 19.257812 20.777344 19.097656 20.792969 18.9375 20.8125 C 15.945312 21.191406 13.824219 23.925781 14.199219 26.914062 C 14.578125 29.902344 17.3125 32.023438 20.304688 31.640625 C 23.296875 31.261719 25.417969 28.527344 25.039062 25.539062 Z M 25.039062 25.539062 " fill-opacity="1" fill-rule="evenodd"/></g></g></g><g clip-path="url(#id4)"><g clip-path="url(#id5)"><g clip-path="url(#id6)"><path fill="#ffffff" d="M 20.941406 36.691406 C 15.15625 37.425781 9.875 33.332031 9.144531 27.554688 C 8.417969 21.78125 12.519531 16.496094 18.300781 15.761719 C 19.699219 15.582031 21.109375 15.683594 22.460938 16.0625 L 24.777344 13.078125 C 22.578125 12.214844 20.210938 11.925781 17.855469 12.222656 C 10.117188 13.207031 4.628906 20.277344 5.605469 28.003906 C 6.578125 35.734375 13.648438 41.210938 21.386719 40.230469 C 29.125 39.25 34.609375 32.179688 33.636719 24.449219 C 33.375 22.367188 32.65625 20.378906 31.53125 18.617188 L 29.15625 21.679688 C 29.636719 22.691406 29.957031 23.78125 30.097656 24.898438 C 30.824219 30.675781 26.722656 35.960938 20.941406 36.691406 Z M 20.941406 36.691406 " fill-opacity="1" fill-rule="evenodd"/></g></g></g><g fill="#ffffff" fill-opacity="1"><g transform="translate(38.326405, 33.438703)"><g><path d="M 4.914062 -10.871094 L 4.914062 -13.476562 C 4.914062 -13.941406 4.824219 -14.261719 4.59375 -14.539062 C 4.476562 -14.65625 4.292969 -14.726562 4.085938 -14.726562 C 3.648438 -14.726562 3.4375 -14.402344 3.347656 -14.101562 C 3.277344 -13.917969 3.253906 -13.710938 3.253906 -13.476562 L 3.253906 -3.277344 C 3.253906 -2.792969 3.371094 -2.46875 3.601562 -2.214844 C 3.714844 -2.101562 3.878906 -2.03125 4.085938 -2.03125 C 4.523438 -2.03125 4.730469 -2.308594 4.824219 -2.652344 C 4.894531 -2.816406 4.914062 -3.023438 4.914062 -3.277344 L 4.914062 -6.347656 L 3.921875 -6.347656 L 3.921875 -8.445312 L 7.410156 -8.445312 L 7.410156 0 L 5.929688 0 L 5.632812 -0.808594 C 5.167969 -0.230469 4.5 0.183594 3.691406 0.183594 C 2.886719 0.183594 2.332031 -0.0234375 1.914062 -0.390625 C 1.5 -0.738281 1.222656 -1.175781 1.039062 -1.636719 C 0.832031 -2.167969 0.738281 -2.792969 0.761719 -3.484375 L 0.761719 -13.476562 C 0.785156 -14.148438 0.921875 -14.769531 1.175781 -15.300781 C 1.386719 -15.761719 1.683594 -16.226562 2.144531 -16.570312 C 2.609375 -16.917969 3.253906 -17.148438 4.085938 -17.148438 C 4.914062 -17.148438 5.539062 -16.917969 6 -16.570312 C 6.460938 -16.226562 6.785156 -15.761719 6.992188 -15.300781 C 7.246094 -14.769531 7.386719 -14.148438 7.410156 -13.476562 L 7.410156 -10.871094 Z M 4.914062 -10.871094 "/></g></g></g><g fill="#ffffff" fill-opacity="1"><g transform="translate(48.271739, 33.438703)"><g><path d="M 7.410156 -3.484375 C 7.386719 -2.792969 7.246094 -2.167969 6.992188 -1.636719 C 6.785156 -1.175781 6.460938 -0.738281 6 -0.390625 C 5.539062 -0.0234375 4.914062 0.183594 4.085938 0.183594 C 3.253906 0.183594 2.609375 -0.0234375 2.144531 -0.390625 C 1.683594 -0.738281 1.386719 -1.175781 1.175781 -1.636719 C 0.921875 -2.167969 0.785156 -2.792969 0.761719 -3.484375 L 0.761719 -13.476562 C 0.785156 -14.148438 0.921875 -14.769531 1.175781 -15.300781 C 1.386719 -15.761719 1.683594 -16.226562 2.144531 -16.570312 C 2.609375 -16.917969 3.253906 -17.148438 4.085938 -17.148438 C 4.914062 -17.148438 5.539062 -16.917969 6 -16.570312 C 6.460938 -16.226562 6.785156 -15.761719 6.992188 -15.300781 C 7.246094 -14.769531 7.386719 -14.148438 7.410156 -13.476562 Z M 4.914062 -13.476562 C 4.914062 -13.941406 4.824219 -14.261719 4.59375 -14.539062 C 4.476562 -14.65625 4.292969 -14.726562 4.085938 -14.726562 C 3.648438 -14.726562 3.4375 -14.402344 3.347656 -14.101562 C 3.277344 -13.917969 3.253906 -13.710938 3.253906 -13.476562 L 3.253906 -3.484375 C 3.253906 -3 3.371094 -2.675781 3.601562 -2.421875 C 3.714844 -2.308594 3.878906 -2.238281 4.085938 -2.238281 C 4.523438 -2.238281 4.730469 -2.515625 4.824219 -2.863281 C 4.894531 -3.023438 4.914062 -3.230469 4.914062 -3.484375 Z M 4.914062 -13.476562 "/></g></g></g><g fill="#ffffff" fill-opacity="1"><g transform="translate(58.078629, 33.438703)"><g><path d="M 0.230469 0 L 2.792969 -16.964844 L 5.839844 -16.964844 L 8.402344 0 L 5.976562 0 L 5.515625 -3.460938 L 3.117188 -3.460938 L 2.652344 0 Z M 4.453125 -11.449219 L 4.386719 -11.886719 L 4.246094 -11.886719 L 4.175781 -11.449219 L 3.460938 -6.09375 L 5.167969 -6.09375 Z M 4.453125 -11.449219 "/></g></g></g><g fill="#ffffff" fill-opacity="1"><g transform="translate(68.347001, 33.438703)"><g><path d="M 0.921875 -16.964844 L 3.414062 -16.964844 L 3.414062 -2.308594 L 6.714844 -2.308594 L 6.714844 0 L 0.921875 0 Z M 0.921875 -16.964844 "/></g></g></g><g fill="#fe7a7b" fill-opacity="1"><g transform="translate(77.554354, 33.105277)"><g><path d="M 7.410156 -3.484375 C 7.410156 -3.09375 7.339844 -2.652344 7.199219 -2.167969 C 7.132812 -1.914062 7.015625 -1.683594 6.902344 -1.429688 C 7.109375 -1.152344 7.410156 -0.921875 7.894531 -0.832031 L 7.894531 1.292969 C 6.484375 1.292969 5.769531 0.691406 5.332031 -0.0234375 C 4.984375 0.09375 4.570312 0.183594 4.085938 0.183594 C 3.253906 0.183594 2.609375 -0.0234375 2.144531 -0.390625 C 1.683594 -0.738281 1.386719 -1.175781 1.175781 -1.636719 C 0.921875 -2.167969 0.785156 -2.792969 0.761719 -3.484375 L 0.761719 -13.480469 C 0.785156 -14.148438 0.921875 -14.769531 1.175781 -15.300781 C 1.386719 -15.761719 1.683594 -16.226562 2.144531 -16.570312 C 2.609375 -16.917969 3.253906 -17.148438 4.085938 -17.148438 C 4.914062 -17.148438 5.539062 -16.917969 6 -16.570312 C 6.460938 -16.226562 6.785156 -15.761719 6.992188 -15.300781 C 7.246094 -14.769531 7.386719 -14.148438 7.410156 -13.480469 Z M 4.914062 -13.480469 C 4.914062 -13.941406 4.824219 -14.261719 4.59375 -14.539062 C 4.476562 -14.65625 4.292969 -14.726562 4.085938 -14.726562 C 3.648438 -14.726562 3.4375 -14.402344 3.347656 -14.101562 C 3.277344 -13.917969 3.253906 -13.710938 3.253906 -13.480469 L 3.253906 -3.484375 C 3.253906 -3 3.371094 -2.675781 3.601562 -2.421875 C 3.714844 -2.308594 3.878906 -2.238281 4.085938 -2.238281 C 4.523438 -2.238281 4.730469 -2.515625 4.824219 -2.863281 C 4.894531 -3.023438 4.914062 -3.230469 4.914062 -3.484375 Z M 4.914062 -13.480469 "/></g></g></g><g fill="#fe7a7b" fill-opacity="1"><g transform="translate(87.409195, 33.105277)"><g><path d="M 7.546875 -16.964844 L 7.546875 -3.484375 C 7.523438 -2.792969 7.386719 -2.167969 7.132812 -1.636719 C 6.925781 -1.175781 6.601562 -0.738281 6.140625 -0.390625 C 5.675781 -0.0234375 5.054688 0.183594 4.222656 0.183594 C 3.394531 0.183594 2.746094 -0.0234375 2.285156 -0.390625 C 1.824219 -0.738281 1.523438 -1.175781 1.316406 -1.636719 C 1.0625 -2.167969 0.921875 -2.792969 0.898438 -3.484375 L 0.898438 -16.964844 L 3.394531 -16.964844 L 3.394531 -3.484375 C 3.394531 -3 3.507812 -2.675781 3.738281 -2.421875 C 3.855469 -2.308594 4.015625 -2.238281 4.222656 -2.238281 C 4.660156 -2.238281 4.871094 -2.515625 4.960938 -2.863281 C 5.03125 -3.023438 5.054688 -3.230469 5.054688 -3.484375 L 5.054688 -16.964844 Z M 7.546875 -16.964844 "/></g></g></g><g fill="#fe7a7b" fill-opacity="1"><g transform="translate(97.494824, 33.105277)"><g><path d="M 0.921875 -16.964844 L 6.625 -16.964844 L 6.625 -14.402344 L 3.414062 -14.402344 L 3.414062 -9.949219 L 5.722656 -9.949219 L 5.722656 -7.222656 L 3.414062 -7.222656 L 3.414062 -2.5625 L 6.625 -2.5625 L 6.625 0 L 0.921875 0 Z M 0.921875 -16.964844 "/></g></g></g><g fill="#fe7a7b" fill-opacity="1"><g transform="translate(106.21879, 33.105277)"><g><path d="M 5.054688 -12.417969 C 5.054688 -12.972656 5.03125 -13.59375 4.871094 -14.078125 C 4.707031 -14.539062 4.453125 -14.863281 4.0625 -14.863281 C 3.414062 -14.839844 3.207031 -14.171875 3.207031 -13.179688 C 3.207031 -12.601562 3.460938 -12 3.832031 -11.355469 C 4.199219 -10.707031 4.683594 -10.039062 5.167969 -9.324219 C 5.746094 -8.46875 6.324219 -7.59375 6.761719 -6.738281 C 7.199219 -5.886719 7.5 -5.007812 7.5 -4.085938 C 7.5 -2.953125 7.316406 -1.890625 6.785156 -1.109375 C 6.253906 -0.324219 5.402344 0.183594 4.039062 0.183594 C 2.445312 0.183594 1.546875 -0.414062 1.039062 -1.339844 C 0.53125 -2.261719 0.414062 -3.484375 0.414062 -4.753906 L 2.863281 -4.984375 C 2.863281 -4.269531 2.886719 -3.554688 3.070312 -3.023438 C 3.230469 -2.46875 3.507812 -2.101562 4.039062 -2.101562 C 4.777344 -2.101562 5.054688 -2.886719 5.054688 -3.96875 C 5.054688 -4.523438 4.777344 -5.167969 4.410156 -5.839844 C 4.199219 -6.164062 3.992188 -6.507812 3.761719 -6.855469 C 3.277344 -7.546875 2.746094 -8.332031 2.191406 -9.1875 C 1.636719 -10.039062 1.222656 -10.917969 0.96875 -11.816406 C 0.832031 -12.253906 0.761719 -12.71875 0.761719 -13.179688 C 0.761719 -14.101562 0.96875 -15.09375 1.5 -15.855469 C 2.03125 -16.59375 2.839844 -17.125 4.015625 -17.148438 C 5.515625 -17.171875 6.394531 -16.546875 6.878906 -15.648438 C 7.363281 -14.726562 7.5 -13.59375 7.5 -12.648438 Z M 5.054688 -12.417969 "/></g></g></g><g fill="#fe7a7b" fill-opacity="1"><g transform="translate(115.773604, 33.105277)"><g><path d="M 0.046875 -14.402344 L 0.046875 -16.964844 L 7.246094 -16.964844 L 7.246094 -14.402344 L 4.894531 -14.402344 L 4.894531 0 L 2.398438 0 L 2.398438 -14.402344 Z M 0.046875 -14.402344 "/></g></g></g></svg>